
<svg xmlns="http://www.w3.org/2000/svg" version="1.1" xmlns:xlink="http://www.w3.org/1999/xlink" preserveAspectRatio="none" x="0px" y="0px" width="155px" height="38px" viewBox="0 0 155 38">
<defs>
<g id="Layer1_0_FILL">
<path fill="#409EFF" stroke="none" d="
M 64.15 138.9
Q 65.05 139.2 65.95 139.25 65.35 139.2 64.75 139.05 64.4 138.95 64.15 138.9
M 65.95 126.45
L 66 126.45 65.95 126.4 65.95 126.45
M 117.7 33.15
L 116.1 32.2
Q 115.75 32.55 116 32.6 116.9 32.75 117.7 33.15
M 121 38.5
L 121 38.95
Q 121.05 38.3 120.95 37.65 121 38.05 121 38.5
M 97.1 35.35
L 110.6 27.5 64.65 0.9
Q 61.3 -0.9 58 0.9
L 3.5 32.4 1.85 33.9
Q 0 35.55 0 37.4
L 0 102.95 0.2 104.25
Q 0.75 105.5 2.05 106.45
L 55.95 137.9 55.95 122.7 14.35 98.5
Q 13.25 97.8 12.9 96.7
L 12.7 95.75 12.7 44.55
Q 12.7 43.1 14.2 41.6
L 15.45 40.5 58.35 15.85
Q 60.95 14.55 63.55 15.85
L 97.1 35.35
M 204.2 37
Q 205.5 34.05 202.75 34.05
L 155.25 34.05
Q 154.7 34.25 153.95 34.8 152.65 35.7 152.65 37.55
L 152.65 104.6 153.4 106.05
Q 154.3 107.55 155.6 107.55
L 206.8 107.55
Q 208.65 107.15 207.35 104.95
L 202.75 97.95
Q 202 96.5 199.8 96.5
L 167.4 96.5
Q 164.8 95.75 164.8 93.35
L 164.8 75.7 194.1 75.7
Q 196.3 75.7 197.2 74.05
L 200.7 67.05
Q 201.8 64.45 199.8 64.45
L 164.8 64.45 164.8 47.7 165.2 46.6
Q 166.1 45.3 167.75 45.3
L 198.7 45.3
Q 200.7 45.1 201.8 43.25
L 204.2 37
M 247.85 98.5
Q 246.75 96.3 244.9 95.95
L 235.15 95.95
Q 231.45 94.85 229.45 92.25
L 228.15 89.85 228.15 36.65
Q 228.15 34.6 226.7 33.9
L 225.05 33.5 216 33.5
Q 215.8 78.45 216 92.8 216.75 101.65 223.9 105.5 227.6 107.35 231.1 107.55
L 250.45 107.55
Q 252.3 107.55 251.9 105.5
L 247.85 98.5
M 261.5 55.45
Q 260.55 55.6 259.85 56.15 258 57.25 258 58.95
L 258 102 259.1 104.8
Q 260.75 107.55 263.5 107.55
L 301.65 107.55
Q 303.85 107.55 303.1 105.5
L 300 98.9
Q 298.85 97.4 297.05 97.4
L 271.6 97.4
Q 268.1 96.7 268.1 93.9
L 268.1 86.35 299.6 86.35
Q 304.05 85.45 304.05 81.75
L 304.05 59.85
Q 303.3 55.45 299.6 55.45
L 261.5 55.45
M 268.1 73.65
L 268.1 67.95
Q 268.1 66.85 269.4 66.1 270.15 65.75 270.7 65.55
L 291.5 65.55
Q 293.7 65.55 293.9 67.95
L 293.9 73.1
Q 293.9 75.5 291.5 76.25
L 270.7 76.25
Q 269.2 76.25 268.5 74.95
L 268.1 73.65
M 361.85 65.75
Q 363.3 66.65 363.3 67.95
L 363.3 106.05 363.7 106.8
Q 364.25 107.55 365 107.55
L 373.1 107.55
Q 374.55 107.75 374.55 106.05
L 374.55 58.95
Q 373.65 53.75 369.4 53.75
L 318.75 53.75
Q 317.85 54.15 316.75 54.7 314.7 56.15 314.7 57.8
L 314.7 106.05 314.9 106.8
Q 315.25 107.55 316.35 107.55
L 324.45 107.55
Q 325.95 107.75 325.95 106.05
L 325.95 67.95 326.3 66.5
Q 327.05 65 328.5 65
L 336.05 65 337.55 65.55
Q 339 66.5 339 67.95
L 339 106.05 339.4 106.8
Q 339.95 107.55 340.65 107.55
L 348.75 107.55
Q 350.25 107.35 350.25 106.05
L 350.25 67.95 350.8 66.5
Q 351.55 65 352.85 65
L 360.4 65 361.85 65.75
M 445.45 53.75
Q 444.35 53.95 443.25 54.7 440.85 56.15 440.85 58.35
L 440.85 105.5 441.05 106.6
Q 441.4 107.55 442.5 107.55
L 450.6 107.55
Q 452.1 107.55 452.1 106.05
L 452.1 67.95
Q 452.1 67.2 452.45 66.5 453 65 454.65 65
L 471.4 65 472.9 65.75
Q 474.35 66.65 474.35 67.95
L 474.35 105.5 474.55 106.6
Q 474.9 107.55 475.85 107.55
L 483.95 107.55
Q 485.6 107.75 485.6 104.95
L 485.6 58.35
Q 484.5 53.75 481 53.75
L 445.45 53.75
M 430.7 59.85
Q 430 55.45 426.3 55.45
L 388.2 55.45
Q 387.25 55.6 386.5 56.15 384.7 57.25 384.7 58.95
L 384.7 102 385.8 104.8
Q 387.25 107.55 390.2 107.55
L 428.35 107.55
Q 430.55 107.55 429.8 105.5
L 426.65 98.9
Q 425.55 97.4 423.7 97.4
L 398.3 97.4
Q 394.8 96.7 394.8 93.9
L 394.8 86.35 426.3 86.35
Q 430.7 85.45 430.7 81.75
L 430.7 59.85
M 420.6 67.95
L 420.6 73.1
Q 420.6 75.5 418.2 76.25
L 397.4 76.25
Q 395.75 76.25 395.2 74.95
L 394.8 73.65 394.8 67.95
Q 394.8 66.85 396.1 66.1 396.85 65.75 397.4 65.55
L 418.2 65.55
Q 420.4 65.55 420.6 67.95
M 516 42
Q 516 41.25 515.8 41.25
L 515.45 41.25
Q 515.05 40.35 513.75 40.7
L 505.3 43.25
Q 504.95 43.45 504.55 43.65 503.85 44.2 503.85 45.3
L 503.85 54.9 496.1 54.9
Q 495.7 54.9 495.35 55.05 494.6 55.6 494.6 56.35
L 494.6 65.9 503.85 65.9 503.85 91.9 506.05 99.45
Q 510.45 107.35 520.4 108.65
L 533.3 108.65
Q 534.6 108.65 533.65 107
L 528.5 97.95
Q 528.15 96.5 526.1 96.5
L 523 96.5
Q 521.3 96.3 519.5 95.2 516 93 516 88.75
L 516 66.5 530.55 66.5 530.55 56.9
Q 530.35 55.45 529.05 55.45
L 516 55.45 516 42
M 570.1 50.45
Q 569.9 50.45 569.85 50.35 569.7 49.75 569.65 49.1 569.65 48.2 564.4 44.75 559.1 41.25 546.2 33.75 546 33.75 545.8 33.8 544.85 34.05 544.85 33.3 544.65 33.3 544.4 33.3 544.4 33.55 544.35 33.55 543.75 33.75 543.05 33.75 542.85 33.75 542.7 33.85 541.8 34.5 540.9 35.2 540.65 35.35 540.45 35.55 540.15 35.8 539.9 36 539.9 36.25 539.9 36.45 539.9 36.7 539.9 36.9 539.9 37.15 539.95 37.35 540.2 38.35 539.45 38.25 539.45 51.1 539.45 63.95 539.45 64.2 539.45 64.4 540.2 64.35 539.95 65.35 539.9 65.55 539.9 65.75 540.05 66.15 540.25 66.55 540.9 67.75 542.05 68.5 542.35 68.7 542.65 68.85 542.85 68.95 543.05 68.95 543.75 68.95 544.35 69.15 544.4 69.15 544.4 69.4 544.85 69.4 545.3 69.4 545.55 69.4 545.75 69.4 545.75 69.15 545.75 68.95 546 68.95 546.2 68.95 546.45 68.95 546.65 68.95 549.9 67.2 553.05 65.45 552.5 65.5 551.85 65.5 549.95 65.5 548.5 64.65 547 63.85 546.95 62.65 546.9 62.05 547.35 61.45 547.75 60.9 548.6 61.45 549.95 62.45 551.9 62.45 553.2 62.45 553.9 61.65 554.5 61 554.5 60.15 554.5 59.25 554.25 58.8 553.95 58.35 553.35 58.05 552.5 57.65 550.85 57.6 550 57.6 549.8 57.1
L 549.7 56
Q 549.7 55.6 549.9 55.25 550.1 54.85 550.55 54.85 551.35 54.75 552.55 54.95 554.3 53.85 554.3 52.4 554.3 51.65 553.65 51.1 552.95 50.55 551.85 50.55 550.2 50.55 548.85 51.3 548.45 51.55 548.1 51.5 547.75 51.45 547.6 51 547.35 49.95 547.75 49.2 548.2 48.55 549.45 48.05 550.75 47.55 552.2 47.55 554.75 47.55 556.25 48.6 557.8 49.65 557.75 51.65 557.65 54.4 555.2 55.6 556.75 56.2 557.55 57.25 558.4 58.4 558.4 60 558.4 61.5 557.8 62.65 558.6 62.15 559.75 61.45
L 561 60.7
Q 561.05 60.65 561.1 60.65 561.35 60.55 561.55 60.5 561.85 60.35 564.1 58.55 566.35 56.75 567.95 55.15 569.55 53.6 569.65 53.6 569.65 53.35 569.65 53.15 569.65 52.9 569.65 52.7 569.9 52.7 570.1 52.7 570.1 52.45 570.1 52.25 570.1 51.35 570.1 50.45 Z"/>

<path fill="#91C233" stroke="none" d="
M 118.05 31.85
L 114.95 30.05 63.9 59.85
Q 63.15 60.4 62.45 61.5 60.95 63.55 60.95 66.5
L 60.95 78.25 109 49 109 60.4
Q 109 63.7 107 65.75
L 64.45 91.35 62.8 93.55
Q 60.95 96.1 60.95 98.9
L 60.95 110.1 109 81 109 93.75
Q 109 94.55 108.95 95.25
L 64.45 121.85 62.8 124.05
Q 62.6 124.3 62.45 124.6 61 126.8 60.95 129.25
L 60.95 140.6 109 111.5 109 111.55 119.5 105.35
Q 119.7 105.25 119.95 105.15 120.55 104.8 121.05 104.3 122.5 102.6 122.65 99
L 122.65 39.4
Q 123.2 34.25 118.05 31.85
M 121 38.95
L 121 38.5
Q 121 38.05 120.95 37.65 121.05 38.3 121 38.95
M 116.1 32.2
L 117.7 33.15
Q 116.9 32.75 116 32.6 115.75 32.55 116.1 32.2
M 66 126.45
L 65.95 126.45 65.95 126.4 66 126.45 Z"/>

<path fill="#006B9B" fill-opacity="0.6745098039215687" stroke="none" d="
M 546.8 32.8
Q 547 32.75 547.2 32.75 547.2 32.55 547.2 32.3 547 32.3 546.75 32.3 546.3 32.3 545.85 32.3 545.85 33.05 546.8 32.8 Z"/>

<path fill="#005277" fill-opacity="0.5176470588235295" stroke="none" d="
M 570.65 51.7
Q 570.65 51.9 570.65 52.15 570.65 52.35 570.65 52.6 570.9 52.6 571.1 52.6 571.1 52.35 571.1 52.15 571.1 51.9 571.1 51.7 570.9 51.7 570.65 51.7 Z"/>

<path fill="#000609" fill-opacity="0.043137254901960784" stroke="none" d="
M 542.05 68.5
Q 540.9 67.75 540.25 66.55 540.35 68.3 542.05 68.5 Z"/>

<path fill="#005C85" fill-opacity="0.5803921568627451" stroke="none" d="
M 545.35 32.55
Q 545.4 32.55 545.4 32.3 545.2 32.3 544.95 32.3 544.5 32.3 544.05 32.3 544.05 32.55 544.05 32.75 544.75 32.75 545.35 32.55 Z"/>

<path fill="#00070A" fill-opacity="0.043137254901960784" stroke="none" d="
M 540.45 35.45
Q 540.45 35.5 540.45 35.55 540.65 35.35 540.9 35.2 540.9 35.1 540.9 35 542.25 33.9 543.7 32.85 543.85 32.75 544.05 32.75 544.05 32.55 544.05 32.3 543.85 32.3 543.6 32.3 542 32.3 540.45 32.3 540.45 33.85 540.45 35.45 Z"/>

<path fill="#00628E" fill-opacity="0.6196078431372549" stroke="none" d="
M 571.1 48.1
Q 570.9 48.1 570.65 48.1 570.7 48.75 570.85 49.35 570.9 49.45 571.1 49.45 571.1 49.2 571.1 49 571.1 48.55 571.1 48.1 Z"/>
</g>
</defs>

<g transform="matrix( 0.2695465087890625, 0, 0, 0.2695465087890625, 0.35,0.25) ">
<use xlink:href="#Layer1_0_FILL"/>
</g>
</svg>
