
<svg xmlns="http://www.w3.org/2000/svg" version="1.1" xmlns:xlink="http://www.w3.org/1999/xlink" preserveAspectRatio="none" x="0px" y="0px" width="30px" height="30px" viewBox="0 0 30 30">
<defs>
<g id="Layer0_0_FILL">
<path fill="#409EFF" stroke="none" d="
M 14.2 0.15
Q 13.65 -0.15 13.1 0.15
L 3.85 5.5 3.6 5.75
Q 3.25 6.05 3.25 6.35
L 3.25 17.45 3.3 17.65
Q 3.4 17.9 3.6 18.05
L 12.75 23.35 12.75 20.8 5.7 16.7
Q 5.5 16.55 5.45 16.4
L 5.4 16.25 5.4 7.55
Q 5.4 7.3 5.7 7.05
L 5.9 6.85 13.15 2.7
Q 13.6 2.45 14.05 2.7
L 19.7 6 22 4.65 14.2 0.15 Z"/>

<path fill="#91C233" stroke="none" d="
M 24.05 6.7
Q 24.15 5.8 23.25 5.4
L 22.75 5.1 14.1 10.15
Q 13.95 10.25 13.85 10.45 13.6 10.75 13.6 11.25
L 13.6 13.25 21.75 8.3 21.75 10.25
Q 21.75 10.8 21.4 11.15
L 14.2 15.5 13.9 15.85
Q 13.6 16.3 13.6 16.75
L 13.6 18.65 21.75 13.75 21.75 15.9
Q 21.75 16 21.7 16.15
L 14.2 20.65 13.9 21
Q 13.85 21.05 13.85 21.1 13.6 21.5 13.6 21.9
L 13.6 23.8 23.5 17.85
Q 23.55 17.85 23.6 17.8 23.7 17.75 23.75 17.7 24 17.4 24.05 16.8
L 24.05 6.7
M 23.2 5.6
Q 23.05 5.55 22.9 5.55 22.9 5.5 22.95 5.45
L 23.2 5.6 Z"/>
</g>
</defs>

<g transform="matrix( 1, 0, 0, 1, 0,0) ">
<use xlink:href="#Layer0_0_FILL"/>
</g>
</svg>
